<svg width="64" height="24" viewBox="0 0 64 24" fill="none" xmlns="http://www.w3.org/2000/svg">
<rect width="64" height="24" fill="white"/>
<g clip-path="url(#clip0_6160_11519)">
<path d="M4.00049 4.30349C4.00049 1.92807 5.94115 0 8.32918 0H55.4912C57.8792 0 59.8199 1.92807 59.8199 4.30349V19.6902C59.8199 22.0656 57.8855 23.9937 55.4912 23.9937H8.32918C5.94115 24 4.00049 22.0719 4.00049 19.6965V4.30349Z" fill="#000268"/>
<path d="M5.77734 4.45471V19.5516C5.77734 21.0386 6.98711 22.2421 8.48042 22.2421H33.1861V1.76424H8.48042C6.98711 1.76424 5.77734 2.96771 5.77734 4.45471ZM39.5752 11.9275C39.5752 12.8916 39.1026 13.5469 38.315 13.5469C37.6219 13.5469 37.0422 12.8853 37.0422 12.0032C37.0422 11.1021 37.5526 10.4279 38.315 10.4279C39.1215 10.4342 39.5752 11.1273 39.5752 11.9275ZM34.9504 17.4408H37.0359V14.1643H37.0611C37.4581 14.8826 38.2457 15.1473 38.9703 15.1473C40.7661 15.1473 41.7238 13.6666 41.7238 11.8834C41.7238 10.4216 40.8102 8.84012 39.1404 8.84012C38.189 8.84012 37.3132 9.22447 36.891 10.0688H36.8658V8.97874H34.9441V17.4408H34.9504ZM44.5718 13.0932C44.5718 12.5135 45.1263 12.293 45.832 12.293C46.147 12.293 46.4431 12.3119 46.7141 12.3245C46.7141 13.0302 46.2163 13.7485 45.4287 13.7485C44.9435 13.7548 44.5718 13.5154 44.5718 13.0932ZM48.7808 15.0087C48.6862 14.5361 48.6673 14.0572 48.6673 13.5847V11.3353C48.6673 9.49541 47.3379 8.83382 45.7941 8.83382C44.9057 8.83382 44.1244 8.95983 43.3872 9.26228L43.425 10.6737C44.0047 10.346 44.6726 10.22 45.3468 10.22C46.0966 10.22 46.7141 10.4405 46.7267 11.266C46.462 11.2218 46.0903 11.184 45.7563 11.184C44.6474 11.184 42.6437 11.4046 42.6437 13.2444C42.6437 14.555 43.7086 15.141 44.8994 15.141C45.7563 15.141 46.336 14.807 46.8086 14.0509H46.8338C46.8338 14.366 46.8653 14.6747 46.8779 15.0024H48.7808V15.0087ZM49.7133 17.4408C50.1417 17.5353 50.5702 17.5794 51.0113 17.5794C52.9204 17.5794 53.3741 16.105 53.9664 14.5928L56.178 8.97874H54.0924L52.8511 12.9168H52.8322L51.5342 8.97874H49.2911L51.7359 15.1536C51.5846 15.6892 51.194 15.9853 50.6836 15.9853C50.3938 15.9853 50.1417 15.9475 49.8582 15.8593L49.7133 17.4408Z" fill="white"/>
<path d="M10.8683 11.9401C10.8683 11.1147 11.2716 10.4342 12.0529 10.4342C12.9917 10.4342 13.3824 11.184 13.3824 11.8582C13.3824 12.7845 12.7901 13.4082 12.0529 13.4082C11.4228 13.4082 10.8683 12.879 10.8683 11.9401ZM15.3986 8.97243H13.5084V10.0625H13.4895C13.0484 9.31898 12.3301 8.83382 11.4417 8.83382C9.56404 8.83382 8.71973 10.1759 8.71973 11.9716C8.71973 13.7548 9.75307 15.0087 11.4039 15.0087C12.2419 15.0087 12.935 14.681 13.4328 13.9753H13.458V14.303C13.458 15.4812 12.809 16.0483 11.6055 16.0483C10.736 16.0483 10.2004 15.8656 9.56404 15.5505L9.45693 17.1951C9.94209 17.3715 10.7675 17.5794 11.763 17.5794C14.1952 17.5794 15.3986 16.7792 15.3986 14.303V8.97243ZM18.9208 6.45839H16.8352V7.9895H18.9208V6.45839ZM16.8352 15.0087H18.9208V8.97243H16.8352V15.0087ZM24.7239 8.90313C24.516 8.87162 24.2577 8.83382 24.0182 8.83382C23.1172 8.83382 22.5942 9.31898 22.2351 10.0877H22.2099V8.97874H20.3133V15.015H22.3989V12.4694C22.3989 11.2849 22.9471 10.5792 23.9174 10.5792C24.1631 10.5792 24.39 10.5792 24.6231 10.6485L24.7239 8.90313ZM28.3154 13.6855C27.3514 13.6855 26.9607 12.8853 26.9607 11.9969C26.9607 11.0958 27.3514 10.2956 28.3154 10.2956C29.2795 10.2956 29.6701 11.0958 29.6701 11.9969C29.6701 12.8853 29.2732 13.6855 28.3154 13.6855ZM28.3154 15.1473C30.3065 15.1473 31.825 13.9879 31.825 11.9969C31.825 9.99318 30.3065 8.83382 28.3154 8.83382C26.3243 8.83382 24.8058 9.99318 24.8058 11.9969C24.8058 13.9879 26.318 15.1473 28.3154 15.1473Z" fill="#FF0007"/>
</g>
<defs>
<clipPath id="clip0_6160_11519">
<rect width="55.814" height="24" fill="white" transform="translate(4)"/>
</clipPath>
</defs>
</svg>
