<svg width="134" height="24" viewBox="0 0 134 24" fill="none" xmlns="http://www.w3.org/2000/svg">
<g clip-path="url(#clip0_6081_9146)">
<path d="M107.952 13.4784V19.1232H106.157V5.184H110.909C112.119 5.184 113.146 5.5872 113.991 6.3936C114.845 7.2 115.277 8.1792 115.277 9.3312C115.277 10.512 114.845 11.5008 113.991 12.288C113.156 13.0848 112.138 13.4784 110.909 13.4784H107.952ZM107.952 6.9024V11.7696H110.948C111.658 11.7696 112.253 11.5296 112.724 11.0496C113.204 10.5696 113.444 9.9936 113.444 9.3312C113.444 8.6784 113.204 8.1216 112.724 7.6416C112.253 7.152 111.668 6.9024 110.948 6.9024H107.952Z" fill="#5F6368"/>
<path d="M119.963 9.2736C121.288 9.2736 122.334 9.6288 123.102 10.3392C123.87 11.0496 124.254 12.0192 124.254 13.248V19.1328H122.536V17.808H122.459C121.72 18.9024 120.731 19.44 119.502 19.44C118.446 19.44 117.572 19.1328 116.862 18.5088C116.152 17.8848 115.796 17.1072 115.796 16.176C115.796 15.1872 116.171 14.4 116.92 13.824C117.668 13.2384 118.667 12.9504 119.905 12.9504C120.971 12.9504 121.844 13.1424 122.536 13.536V13.1232C122.536 12.4992 122.286 11.9712 121.796 11.5392C121.307 11.1072 120.721 10.8864 120.059 10.8864C119.06 10.8864 118.264 11.3088 117.688 12.1536L116.113 11.1648C116.977 9.8976 118.264 9.2736 119.963 9.2736ZM117.649 16.2048C117.649 16.6752 117.851 17.0592 118.244 17.376C118.638 17.6832 119.108 17.8464 119.636 17.8464C120.385 17.8464 121.057 17.568 121.652 17.0112C122.248 16.4544 122.536 15.8016 122.536 15.0432C121.979 14.6016 121.201 14.3808 120.203 14.3808C119.473 14.3808 118.868 14.5536 118.379 14.9088C117.889 15.2544 117.649 15.6864 117.649 16.2048Z" fill="#5F6368"/>
<path d="M133.999 9.5904L128.018 23.3376H126.165L128.383 18.528L124.447 9.5904H126.396L129.237 16.4448H129.276L132.04 9.5904H133.999Z" fill="#5F6368"/>
<path d="M45.6424 13.0176V10.8576H52.8623C52.9391 11.2416 52.9775 11.6928 52.9775 12.1824C52.9775 13.7952 52.5359 15.8016 51.1149 17.2224C49.7324 18.6624 47.9562 19.44 45.6136 19.44C41.2644 19.44 37.6064 15.8976 37.6064 11.5488C37.6064 7.2 41.2548 3.64799 45.604 3.64799C48.0138 3.64799 49.7228 4.5888 51.0093 5.8272L49.4924 7.344C48.5707 6.48 47.313 5.808 45.604 5.808C42.4261 5.808 39.9491 8.3712 39.9491 11.5488C39.9491 14.7264 42.4261 17.28 45.604 17.28C47.6682 17.28 48.8395 16.4544 49.5884 15.7056C50.2028 15.0912 50.6061 14.2176 50.7597 13.0176H45.6424Z" fill="#5F6368"/>
<path d="M63.9696 14.352C63.9696 17.28 61.6752 19.4304 58.872 19.4304C56.0688 19.4304 53.7744 17.2704 53.7744 14.352C53.7744 11.4048 56.0688 9.2736 58.872 9.2736C61.6848 9.2736 63.9696 11.4144 63.9696 14.352ZM61.7424 14.352C61.7424 12.5184 60.4176 11.2704 58.872 11.2704C57.336 11.2704 56.0016 12.5184 56.0016 14.352C56.0016 16.1568 57.3264 17.4336 58.872 17.4336C60.4176 17.4336 61.7424 16.1664 61.7424 14.352Z" fill="#5F6368"/>
<path d="M75.0971 14.352C75.0971 17.28 72.8027 19.4304 69.9995 19.4304C67.1963 19.4304 64.9019 17.28 64.9019 14.352C64.9019 11.4048 67.1963 9.2736 69.9995 9.2736C72.8123 9.2736 75.0971 11.4144 75.0971 14.352ZM72.8699 14.352C72.8699 12.5184 71.5451 11.2704 69.9995 11.2704C68.4635 11.2704 67.1291 12.5184 67.1291 14.352C67.1291 16.1568 68.4539 17.4336 69.9995 17.4336C71.5355 17.4336 72.8699 16.1664 72.8699 14.352Z" fill="#5F6368"/>
<path d="M85.7637 9.58079V18.7008C85.7637 22.4544 83.5461 23.9904 80.9349 23.9904C78.4677 23.9904 76.9893 22.3392 76.4325 20.9856L78.3717 20.1792C78.7173 21.0048 79.5621 21.984 80.9349 21.984C82.6053 21.984 83.6517 20.9472 83.6517 18.9984V18.2688H83.5749C83.0757 18.8832 82.1157 19.4208 80.8965 19.4208C78.3525 19.4208 76.0293 17.2032 76.0293 14.3616C76.0293 11.4912 78.3621 9.26399 80.8965 9.26399C82.1061 9.26399 83.0757 9.80159 83.5749 10.3968H83.6517V9.57119L85.7637 9.58079ZM83.8053 14.3712C83.8053 12.5856 82.6149 11.2704 81.0885 11.2704C79.5525 11.2704 78.2565 12.576 78.2565 14.3712C78.2565 16.1376 79.5429 17.4336 81.0885 17.4336C82.6053 17.4336 83.8053 16.1472 83.8053 14.3712Z" fill="#5F6368"/>
<path d="M89.5473 4.24319V19.1328H87.3105V4.24319H89.5473Z" fill="#5F6368"/>
<path d="M98.1682 16.032L99.8962 17.184C99.3394 18.0096 97.9954 19.44 95.6626 19.44C92.773 19.44 90.6226 17.2032 90.6226 14.3616C90.6226 11.3376 92.8018 9.2832 95.413 9.2832C98.053 9.2832 99.3394 11.3856 99.7618 12.5184L99.9922 13.0944L93.1954 15.9072C93.7138 16.9248 94.5202 17.4432 95.6626 17.4432C96.805 17.4336 97.5922 16.8768 98.1682 16.032ZM92.8402 14.1984L97.381 12.3072C97.1314 11.6736 96.3826 11.232 95.4994 11.232C94.357 11.2416 92.7826 12.24 92.8402 14.1984Z" fill="#5F6368"/>
<path d="M14.2859 13.9488L20.9969 2.3232L24.6548 4.4352C27.0167 5.7984 27.8232 8.8128 26.4598 11.1744L22.6771 17.7216C21.8226 19.2 19.9408 19.6992 18.4623 18.8544L15.0731 16.896C14.0458 16.2912 13.6906 14.976 14.2859 13.9488Z" fill="url(#paint0_linear_6081_9146)"/>
<path d="M13.5756 5.8752L5.23242 20.3328L8.89037 22.4448C11.2522 23.808 14.2669 23.0016 15.6302 20.64L21.0451 11.2608C21.8996 9.7824 21.3908 7.9008 19.9122 7.0464L16.5135 5.088C15.4862 4.4928 14.1709 4.848 13.5756 5.8752Z" fill="#FDBD00"/>
<path d="M20.9969 2.3232L18.4143 0.825599C15.4668 -0.873601 11.6936 0.134399 9.98468 3.0816L5.18422 11.3952C4.32974 12.8736 4.83859 14.7552 6.31713 15.6096L8.89977 17.1072C10.3783 17.9616 12.2601 17.4528 13.1146 15.9744L18.8463 6.048C20.0368 3.984 22.6675 3.2832 24.7317 4.4736" fill="#2DA94F"/>
<path d="M10.7336 5.52L7.88214 3.8784C6.60522 3.1488 4.98267 3.5808 4.253 4.848L0.815868 10.7616C-0.873894 13.6704 0.134203 17.3952 3.05288 19.0848L5.22269 20.3328L7.86294 21.8496L9.00545 22.512C6.97966 21.1488 6.33639 18.432 7.57491 16.2912L8.4582 14.7648L11.7033 9.1584C12.4426 7.872 12.0009 6.2496 10.7336 5.52Z" fill="url(#paint1_linear_6081_9146)"/>
</g>
<defs>
<linearGradient id="paint0_linear_6081_9146" x1="15.9681" y1="9.2364" x2="25.9275" y2="12.8617" gradientUnits="userSpaceOnUse">
<stop offset="0.2" stop-color="#D93025"/>
<stop offset="0.6" stop-color="#EA4335"/>
</linearGradient>
<linearGradient id="paint1_linear_6081_9146" x1="0.848146" y1="10.4093" x2="11.9429" y2="14.4479" gradientUnits="userSpaceOnUse">
<stop offset="0.2" stop-color="#4285F4"/>
<stop offset="0.8" stop-color="#1B74E8"/>
</linearGradient>
<clipPath id="clip0_6081_9146">
<rect width="134" height="24" fill="white"/>
</clipPath>
</defs>
</svg>
