<svg width="64" height="24" viewBox="0 0 64 24" fill="none" xmlns="http://www.w3.org/2000/svg">
<rect width="64" height="24" fill="white"/>
<g clip-path="url(#clip0_6160_11567)">
<path d="M18.0085 1.7791V22.2209C18.0085 23.1994 18.8091 24 19.7876 24H32.0011C41.2346 24 45.2376 18.8317 45.2376 11.9733C45.2376 5.15048 41.2346 0 32.0011 0H19.7876C18.8091 0 18.0085 0.800593 18.0085 1.7791Z" fill="white"/>
<path d="M26.1836 5.01704V20.1216H32.7574C38.7262 20.1216 41.3148 16.7502 41.3148 11.9822C41.3148 7.41882 38.7262 3.87842 32.7574 3.87842H27.3222C26.6906 3.87842 26.1836 4.39436 26.1836 5.01704Z" fill="#CC0066"/>
<path d="M32.001 22.3721H21.3798C20.4369 22.3721 19.6719 21.6071 19.6719 20.6642V3.34471C19.6719 2.40179 20.4369 1.63678 21.3798 1.63678H32.001C42.0796 1.63678 43.5829 8.12158 43.5829 11.9822C43.5829 18.6805 39.4643 22.3721 32.001 22.3721ZM21.3798 2.20609C20.7482 2.20609 20.2412 2.71313 20.2412 3.34471V20.6642C20.2412 21.2958 20.7482 21.8028 21.3798 21.8028H32.001C39.0996 21.8028 43.0136 18.3158 43.0136 11.9822C43.0136 3.47814 36.1107 2.20609 32.001 2.20609H21.3798Z" fill="black"/>
<path d="M28.4962 9.94514C28.7275 9.94514 28.941 9.98073 29.1456 10.0519C29.3502 10.1231 29.5192 10.2387 29.6704 10.381C29.8127 10.5322 29.9284 10.7191 30.0173 10.9325C30.0974 11.1549 30.1419 11.4129 30.1419 11.7153C30.1419 11.9822 30.1063 12.2224 30.044 12.4448C29.9728 12.6672 29.875 12.8629 29.7416 13.023C29.6081 13.1831 29.4391 13.3076 29.2345 13.4055C29.0299 13.4944 28.7897 13.5478 28.514 13.5478H26.9573V9.93625H28.4962V9.94514ZM28.4428 12.8895C28.5585 12.8895 28.6652 12.8718 28.7808 12.8362C28.8876 12.8006 28.9854 12.7383 29.0655 12.6494C29.1456 12.5604 29.2167 12.4537 29.2701 12.3113C29.3235 12.169 29.3502 12.0089 29.3502 11.8043C29.3502 11.6264 29.3324 11.4574 29.2968 11.315C29.2612 11.1727 29.1989 11.0393 29.1189 10.9414C29.0388 10.8436 28.9321 10.7546 28.7986 10.7013C28.6652 10.6479 28.5051 10.6212 28.3094 10.6212H27.7401V12.8984H28.4428V12.8895Z" fill="white"/>
<path d="M33.353 9.94514V10.6123H31.4494V11.3862H33.2018V12H31.4494V12.8807H33.3975V13.5478H30.6577V9.93625H33.353V9.94514Z" fill="white"/>
<path d="M36.0753 9.94516L37.4274 13.5567H36.6001L36.3243 12.7561H34.9722L34.6876 13.5567H33.887L35.248 9.94516H36.0753ZM36.1197 12.1601L35.6661 10.8347H35.6572L35.1857 12.1601H36.1197Z" fill="white"/>
<path d="M38.717 9.94516V12.8896H40.4783V13.5567H37.9253V9.94516H38.717Z" fill="white"/>
<path d="M23.2123 13.4144C24.131 13.4144 24.8757 12.6696 24.8757 11.7509C24.8757 10.8322 24.131 10.0875 23.2123 10.0875C22.2936 10.0875 21.5488 10.8322 21.5488 11.7509C21.5488 12.6696 22.2936 13.4144 23.2123 13.4144Z" fill="black"/>
<path d="M24.4666 20.1216C23.07 20.1216 21.9492 18.9918 21.9492 17.6041V15.6382C21.9492 14.9444 22.5096 14.3751 23.2124 14.3751C23.9062 14.3751 24.4755 14.9355 24.4755 15.6382V20.1216H24.4666Z" fill="black"/>
</g>
<defs>
<clipPath id="clip0_6160_11567">
<rect width="27.2461" height="24" fill="white" transform="translate(18)"/>
</clipPath>
</defs>
</svg>
