<svg width="37" height="25" viewBox="0 0 37 25" fill="none" xmlns="http://www.w3.org/2000/svg">
<path d="M34.4473 24.5H2.15765C1.13045 24.4904 0.300049 23.6552 0.300049 22.6232V2.3768C0.300049 1.34 1.14005 0.5 2.17685 0.5H34.4281C35.4648 0.5 36.3049 1.34 36.3049 2.3768V22.628C36.3001 23.6552 35.4744 24.4904 34.4473 24.5Z" fill="#EF809F"/>
<path d="M11.1049 21.9512C11.9209 21.9512 12.5449 21.404 12.5449 20.6024C12.5449 19.8584 12.0169 19.5368 11.3689 19.3448C10.9561 19.2248 10.6969 19.1336 10.6969 18.8408C10.6969 18.596 10.8745 18.404 11.1577 18.404C11.3977 18.404 11.5753 18.5432 11.7049 18.7544L12.3817 18.3272C12.1705 17.8616 11.6953 17.6216 11.1817 17.6216C10.3657 17.6216 9.8473 18.2072 9.8473 18.8888C9.8473 19.4312 10.1737 19.8488 10.9753 20.084C11.4121 20.2088 11.6905 20.2952 11.6905 20.6408C11.6905 20.9672 11.4553 21.1688 11.1145 21.1688C10.7497 21.1688 10.4713 20.9336 10.3033 20.7176L9.7417 21.2792C10.0441 21.692 10.5337 21.9512 11.1049 21.9512ZM14.4025 21.9512C13.5385 21.9512 12.8377 21.26 12.8377 20.42C12.8377 19.58 13.5385 18.8888 14.4025 18.8888C15.2665 18.8888 15.9673 19.58 15.9673 20.42C15.9673 21.26 15.2665 21.9512 14.4025 21.9512ZM14.4025 21.1832C14.8201 21.1832 15.1513 20.852 15.1513 20.42C15.1513 19.988 14.8201 19.6568 14.4025 19.6568C13.9801 19.6568 13.6537 19.988 13.6537 20.42C13.6537 20.8568 13.9849 21.1832 14.4025 21.1832ZM17.9881 18.4424V17.6744H17.8681C16.8745 17.6744 16.3849 18.3368 16.3849 19.1144V21.8744H17.2009V20.6648C17.2009 20.2616 17.5129 19.9736 17.9641 19.964V19.1864C17.6425 19.1864 17.3833 19.2824 17.2009 19.4744V19.1624C17.2009 18.6536 17.5321 18.4232 17.9881 18.4424ZM19.7689 21.9512C18.9049 21.9512 18.2041 21.26 18.2041 20.42C18.2041 19.58 18.9049 18.8888 19.7689 18.8888C20.6329 18.8888 21.3337 19.58 21.3337 20.42C21.3337 21.26 20.6329 21.9512 19.7689 21.9512ZM19.7689 21.1832C20.1913 21.1832 20.5177 20.852 20.5177 20.42C20.5177 19.988 20.1865 19.6568 19.7689 19.6568C19.3513 19.6568 19.0201 19.988 19.0201 20.42C19.0201 20.8568 19.3513 21.1832 19.7689 21.1832ZM22.5673 19.3016V18.9704H21.7753V21.8744H22.5913V20.5496C22.5913 20.0696 22.8745 19.8008 23.3641 19.8008V18.9272C22.9945 18.9128 22.7305 19.0376 22.5673 19.3016ZM24.6505 20.3912V19.6808C24.8329 19.8728 25.0873 19.9688 25.4137 19.9688V19.196C24.9721 19.1864 24.6505 18.8888 24.6505 18.4952V18.0392H23.8345V20.4392C23.8345 21.2168 24.3193 21.8792 25.3177 21.8792H25.4377V21.1112C24.9817 21.1256 24.6505 20.9 24.6505 20.3912ZM26.4121 21.9224C26.7097 21.9224 26.9593 21.6776 26.9593 21.3752C26.9593 21.0776 26.7145 20.828 26.4121 20.828C26.1097 20.828 25.8649 21.0728 25.8649 21.3752C25.8649 21.6776 26.1097 21.9224 26.4121 21.9224Z" fill="white"/>
<path d="M17.0089 11.6552C17.2633 11.9048 17.2681 12.3128 17.0185 12.5672L16.9705 12.62C16.7209 12.8744 16.3129 12.8792 16.0585 12.6296L14.6185 11.204C14.2201 10.8056 14.1673 10.316 14.4169 10.0568L14.4649 10.004C14.6713 9.788 15.0121 9.7688 15.2473 9.9512C15.3577 10.0376 15.5209 10.0184 15.6121 9.908C15.6985 9.7976 15.6793 9.6344 15.5689 9.5432C15.1225 9.1928 14.4841 9.236 14.0905 9.6392L14.0425 9.692C13.5769 10.172 13.6681 10.9832 14.2489 11.564L15.6937 13.004C16.1593 13.4504 16.8937 13.4408 17.3449 12.98L17.3977 12.9272C17.8393 12.4664 17.8297 11.7368 17.3737 11.2856C17.2729 11.1848 17.1097 11.1848 17.0089 11.2904C16.9033 11.3912 16.9033 11.5544 17.0089 11.6552ZM16.1449 3.9224L16.7353 8.7704C16.7497 8.9096 16.8793 9.0152 17.0233 8.996C17.1625 8.9816 17.2681 8.852 17.2489 8.708L16.6585 3.8408L16.6537 3.812C16.5529 3.4088 16.8025 2.9576 17.1385 2.8856C17.3257 2.8472 17.5225 2.8808 17.6809 2.9864C17.8393 3.092 17.9497 3.2552 17.9881 3.4424L19.0153 7.8296C19.0489 7.9688 19.1881 8.0552 19.3273 8.0216C19.4665 7.988 19.5529 7.8488 19.5193 7.7096L18.4969 3.3368C18.4345 3.02 18.2425 2.7368 17.9689 2.5544C17.6953 2.372 17.3545 2.3096 17.0329 2.3768C16.3993 2.5112 15.9865 3.2504 16.1449 3.9224Z" fill="white"/>
<path d="M21.5592 9.61521L22.7256 3.80721C22.86 3.18321 22.4904 2.55441 21.8712 2.37201C21.18 2.19921 20.484 2.60241 20.3064 3.28401L19.0152 7.70481C18.9768 7.84401 19.0536 7.98801 19.1928 8.02641C19.332 8.06481 19.476 7.98801 19.5144 7.84881L20.8056 3.42321C20.916 3.01521 21.3288 2.77041 21.732 2.87121C22.0776 2.97681 22.2936 3.33681 22.2168 3.70161L21.0504 9.51441C21.0216 9.65361 21.1128 9.79281 21.252 9.82161C21.396 9.84561 21.5352 9.75441 21.5592 9.61521ZM18.6264 15.212C16.7784 15.212 15.2376 13.8584 15.2376 11.9336C15.2376 11.7896 15.1224 11.6744 14.9784 11.6744C14.8344 11.6744 14.7192 11.7896 14.7192 11.9336C14.7192 14.1608 16.5096 15.7304 18.6264 15.7304C18.7704 15.7304 18.8856 15.6152 18.8856 15.4712C18.8856 15.3272 18.7704 15.212 18.6264 15.212ZM17.7144 10.6856C17.676 10.8296 17.5848 10.9592 17.46 11.0408L17.4024 11.0744C17.1048 11.276 16.7016 11.1992 16.5 10.9016L15.3672 9.21681C15.06 8.74641 15.0984 8.25681 15.396 8.05041L15.4488 8.01201C15.8328 7.79121 16.1544 7.95921 16.4856 8.44401L17.4312 9.85521C17.5128 9.97521 17.6712 10.004 17.7912 9.92721C17.9112 9.85041 17.94 9.68721 17.8632 9.56721L16.9176 8.15601C16.4472 7.47441 15.8712 7.17201 15.1752 7.57521L15.1032 7.62321C14.5464 8.00241 14.4792 8.81841 14.9352 9.50481L16.068 11.1944C16.4328 11.7272 17.1528 11.8664 17.6856 11.5064L17.7432 11.468C17.9688 11.3144 18.132 11.084 18.2088 10.82C18.2472 10.6808 18.1656 10.5416 18.0264 10.5032C17.892 10.4648 17.7528 10.5464 17.7144 10.6856Z" fill="white"/>
<path d="M19.428 11.54C18.8904 11.8424 18.5544 12.404 18.516 13.2632C18.5064 13.4072 18.6168 13.5272 18.7608 13.5368C18.9048 13.5416 19.0248 13.436 19.0344 13.292C19.0728 12.5144 19.3752 12.0968 19.86 11.9144C20.1192 11.8184 20.4024 11.7992 20.652 11.8232L20.7144 11.8328C21.0456 11.8952 21.1512 11.4008 20.82 11.324L18.828 10.8776C17.8968 10.6232 17.7528 10.2776 17.9256 9.70161C18.0024 9.45201 18.1512 9.32241 18.3864 9.26961C18.54 9.23601 18.708 9.24081 18.8712 9.26961C18.9192 9.27921 18.9528 9.28401 18.9672 9.28881L21.9912 9.99441L22.0488 10.0136C22.0968 10.0328 22.1496 10.0712 22.2024 10.124C22.404 10.34 22.5192 10.748 22.4616 11.42C22.2648 13.772 21.1704 15.2312 18.5688 15.2072C18.4248 15.2072 18.3096 15.3224 18.3096 15.4616C18.3096 15.6056 18.4248 15.7208 18.564 15.7208C21.4824 15.7448 22.7592 14.0504 22.9752 11.4584C23.0424 10.652 22.8936 10.1 22.5816 9.76881C22.4088 9.58641 22.2264 9.50001 22.0872 9.48081L19.0968 8.78481C19.0776 8.78001 19.0296 8.76561 18.9624 8.75601C18.7368 8.71761 18.5016 8.71281 18.2712 8.76081C17.868 8.85201 17.5608 9.10641 17.4312 9.54801C17.1816 10.3784 17.4456 11.0312 18.7032 11.372L19.428 11.54Z" fill="white"/>
</svg>
