<svg width="64" height="25" viewBox="0 0 64 25" fill="none" xmlns="http://www.w3.org/2000/svg">
<rect width="64" height="24" fill="white"/>
<path d="M43.611 12.4024H40.5C40.1543 12.4024 39.8759 12.1288 39.8759 11.7831C39.8759 11.4374 40.1543 11.135 40.5 11.135H45.2338V8.8017H40.5C38.8485 8.8017 37.5042 10.1508 37.5042 11.7975C37.5042 13.4442 38.8485 14.7933 40.5 14.7933H43.5678C43.9135 14.7933 44.1919 15.067 44.1919 15.4126C44.1919 15.7583 43.9135 16.0127 43.5678 16.0127H36.9905C36.4336 17.0786 35.8911 17.9907 34.7869 18.4468H43.611C45.2338 18.4228 46.5636 17.0497 46.5636 15.4174C46.5636 13.7803 45.2338 12.4264 43.611 12.4024Z" fill="#71706F"/>
<path d="M31.6902 8.8017C29.0545 8.8017 26.9084 10.9621 26.9084 13.6123V13.7131V23.6223H29.2945V18.4468H31.6854C34.3211 18.4468 36.4576 16.2576 36.4576 13.6075C36.4624 10.9525 34.3259 8.8017 31.6902 8.8017ZM31.6902 16.0079H29.2945V13.6027C29.2945 12.2584 30.3651 11.1638 31.6902 11.1638C33.0153 11.1638 34.0955 12.2584 34.0955 13.6027C34.0955 14.9469 33.0153 16.0079 31.6902 16.0079Z" fill="#71706F"/>
<path d="M19.3565 18.4468C17.1 18.4468 15.2036 16.8385 14.6899 14.7405C14.6899 14.7405 14.5411 14.0444 14.5411 13.5883C14.5411 13.1322 14.6803 12.4312 14.6803 12.4312C15.1988 10.338 17.0904 8.7777 19.3421 8.7777C21.9922 8.7777 24.167 10.9285 24.167 13.5787V14.7453H17.1288C17.5465 15.5567 18.3867 16.0127 19.3565 16.0127H25.6841L25.6937 9.14257C25.6937 8.11997 24.8584 7.2798 23.831 7.2798H14.8628C13.8402 7.2798 13 8.09116 13 9.11857V18.0868C13 19.1094 13.8402 19.9735 14.8628 19.9735H23.831C24.748 19.9735 25.5161 19.3158 25.6649 18.4516H19.3565V18.4468Z" fill="#B90466"/>
<path d="M19.3469 11.0534C18.3819 11.0534 17.5417 11.6439 17.124 12.4072H21.5697C21.152 11.6439 20.3119 11.0534 19.3469 11.0534Z" fill="#B90466"/>
<path d="M23.4085 4.36082C23.4085 2.17158 21.5889 0.400024 19.3469 0.400024C17.1432 0.400024 15.3477 2.11877 15.29 4.2552C15.29 4.2648 15.29 4.2744 15.29 4.284V5.46984C15.29 5.61387 15.4053 5.75309 15.5541 5.75309H17.0472C17.1912 5.75309 17.3208 5.61387 17.3208 5.46984V4.36082C17.3208 3.2662 18.2282 2.37802 19.3517 2.37802C20.4751 2.37802 21.3825 3.2662 21.3825 4.36082V5.46984C21.3825 5.61387 21.4977 5.75309 21.6465 5.75309H23.1396C23.2836 5.75309 23.4133 5.61387 23.4133 5.46984V4.36082H23.4085Z" fill="#B90466"/>
<path d="M34.369 21.5434L34.153 22.7677C34.0473 23.387 33.6393 23.6703 33.0919 23.6703C32.6263 23.6703 32.2662 23.3678 32.3718 22.7677L32.5878 21.5434H32.9191L32.7031 22.7677C32.6359 23.1518 32.8087 23.3678 33.1304 23.3678C33.4616 23.3678 33.7497 23.171 33.8169 22.7677L34.0329 21.5434H34.369ZM33.0583 21.1594C33.0583 21.2602 33.1352 21.3082 33.2216 21.3082C33.3272 21.3082 33.4424 21.2362 33.4424 21.0922C33.4424 20.9913 33.3752 20.9433 33.2888 20.9433C33.1784 20.9433 33.0583 21.0105 33.0583 21.1594ZM33.7785 21.1546C33.7785 21.2602 33.8601 21.3082 33.9465 21.3082C34.0377 21.3082 34.1626 21.2362 34.1626 21.097C34.1626 20.9961 34.0905 20.9433 34.0089 20.9433C33.9033 20.9433 33.7785 21.0105 33.7785 21.1546Z" fill="#71706F"/>
<path d="M35.1707 21.5435L35.0219 22.3884C35.1515 22.2156 35.4108 22.1244 35.5884 22.1244C35.9629 22.1244 36.2174 22.3452 36.2174 22.7485C36.2174 23.3198 35.8189 23.6655 35.31 23.6655C35.1131 23.6655 34.9451 23.5935 34.8395 23.4062L34.7819 23.6271H34.489L34.8587 21.5435H35.1707ZM34.9403 22.9693C34.9259 23.2142 35.0891 23.3726 35.3196 23.3726C35.6124 23.3726 35.8909 23.147 35.9101 22.8061C35.9245 22.5565 35.7613 22.4076 35.5356 22.4076C35.2476 22.4076 34.9547 22.6429 34.9403 22.9693Z" fill="#71706F"/>
<path d="M36.8271 23.0126C36.8175 23.2142 36.9759 23.3822 37.2448 23.3822C37.3936 23.3822 37.5905 23.3246 37.7009 23.2238L37.8689 23.4158C37.6865 23.5839 37.4176 23.6703 37.1872 23.6703C36.7599 23.6703 36.5103 23.4158 36.5103 23.0222C36.5103 22.5037 36.9183 22.1148 37.4416 22.1148C37.9217 22.1148 38.1906 22.4028 38.0274 23.0126H36.8271ZM37.7777 22.7581C37.8017 22.5037 37.6529 22.398 37.4032 22.398C37.1776 22.398 36.9711 22.5037 36.8799 22.7581H37.7777Z" fill="#71706F"/>
<path d="M38.8531 22.1484L38.8387 22.3452C38.9828 22.158 39.1556 22.1148 39.314 22.1148C39.4581 22.1148 39.5877 22.1676 39.6549 22.2396L39.4677 22.5085C39.4004 22.446 39.3332 22.4172 39.2228 22.4172C39.0116 22.4172 38.8003 22.5469 38.7523 22.8205L38.6083 23.6175H38.301L38.5651 22.1436H38.8531V22.1484Z" fill="#71706F"/>
<path d="M41.1481 22.1484L41.3018 23.315L41.8683 22.1484H42.2092L41.4362 23.6223H41.0761L40.9273 22.6525L40.6921 23.1326L40.4328 23.6223H40.0727L39.8135 22.1484H40.1591L40.3128 23.315L40.8793 22.1484H41.1481Z" fill="#71706F"/>
<path d="M42.6076 23.0126C42.598 23.2142 42.7565 23.3822 43.0253 23.3822C43.1741 23.3822 43.371 23.3246 43.4814 23.2238L43.6494 23.4158C43.467 23.5839 43.1982 23.6703 42.9677 23.6703C42.5404 23.6703 42.2908 23.4158 42.2908 23.0222C42.2908 22.5037 42.6989 22.1148 43.2222 22.1148C43.7023 22.1148 43.9711 22.4028 43.8079 23.0126H42.6076ZM43.5582 22.7581C43.5822 22.5037 43.4334 22.398 43.1838 22.398C42.9581 22.398 42.7517 22.5037 42.6604 22.7581H43.5582Z" fill="#71706F"/>
<path d="M44.6576 22.1484L44.3983 23.6223H44.0911L44.3503 22.1484H44.6576ZM44.3839 21.7499C44.3839 21.8555 44.4607 21.9083 44.5472 21.9083C44.6672 21.9083 44.7776 21.8315 44.7776 21.6827C44.7776 21.5819 44.7056 21.5242 44.624 21.5242C44.5087 21.529 44.3839 21.6011 44.3839 21.7499Z" fill="#71706F"/>
<path d="M46.0258 22.5132C45.9298 22.4076 45.805 22.374 45.661 22.374C45.4593 22.374 45.3105 22.4412 45.3105 22.5709C45.3105 22.6813 45.4257 22.7245 45.6034 22.7389C45.8722 22.7629 46.2179 22.8541 46.1459 23.2334C46.0931 23.507 45.8194 23.6703 45.4353 23.6703C45.1953 23.6703 44.9648 23.6175 44.8064 23.3966L45.008 23.1758C45.1185 23.3294 45.3153 23.3918 45.4881 23.3966C45.637 23.3966 45.8098 23.3438 45.8386 23.2046C45.8674 23.0702 45.7474 23.0221 45.5313 23.0029C45.2769 22.9789 45.0032 22.8877 45.0032 22.6045C45.0032 22.2348 45.4017 22.1052 45.7042 22.1052C45.9346 22.1052 46.0979 22.158 46.2371 22.302L46.0258 22.5132Z" fill="#71706F"/>
<path d="M47.0051 22.1484L46.8659 22.9405C46.8179 23.195 46.9331 23.3678 47.1923 23.3678C47.4372 23.3678 47.6436 23.1662 47.682 22.9213L47.8165 22.1484H48.1237L47.8645 23.6223H47.586L47.6052 23.411C47.4324 23.5743 47.2596 23.6559 47.0531 23.6559C46.6882 23.6559 46.4722 23.3966 46.5538 22.9501L46.693 22.1532H47.0051V22.1484Z" fill="#71706F"/>
<path d="M49.4824 23.6223L49.6264 22.8349C49.6696 22.5805 49.5832 22.4124 49.3 22.4124C49.0551 22.4124 48.8487 22.6093 48.8055 22.8541L48.671 23.6271H48.3638L48.623 22.1532H48.9063L48.8823 22.3692C49.0551 22.2108 49.2327 22.134 49.4248 22.134C49.7849 22.134 50.0201 22.3836 49.9385 22.8349L49.7945 23.6271H49.4824V23.6223Z" fill="#71706F"/>
<path d="M50.5292 23.8239C50.51 24.0256 50.6636 24.1072 50.9229 24.1072C51.1533 24.1072 51.3982 23.9823 51.4558 23.6559L51.499 23.4014C51.3646 23.5887 51.1197 23.6655 50.9325 23.6655C50.5532 23.6655 50.2892 23.4398 50.2892 23.0318C50.2892 22.4508 50.7213 22.1148 51.211 22.1148C51.4174 22.1148 51.6046 22.2156 51.6718 22.3836L51.7247 22.1484H52.0223L51.7631 23.6655C51.667 24.2272 51.2494 24.4 50.8701 24.4C50.414 24.4 50.1643 24.1792 50.2268 23.8239H50.5292ZM50.6156 22.9789C50.6156 23.2334 50.7789 23.3822 51.0189 23.3822C51.6574 23.3822 51.8303 22.4028 51.1917 22.4028C50.8893 22.4028 50.6156 22.6285 50.6156 22.9789Z" fill="#71706F"/>
</svg>
