<svg width="14" height="14" viewBox="0 0 14 14" fill="none" xmlns="http://www.w3.org/2000/svg">
<path d="M7 3.5C6.30777 3.5 5.63108 3.70527 5.0555 4.08986C4.47993 4.47444 4.03133 5.02107 3.76642 5.66061C3.50151 6.30015 3.4322 7.00388 3.56725 7.68282C3.7023 8.36175 4.03564 8.98539 4.52513 9.47487C5.01461 9.96436 5.63825 10.2977 6.31718 10.4327C6.99612 10.5678 7.69985 10.4985 8.33939 10.2336C8.97893 9.96867 9.52556 9.52007 9.91014 8.9445C10.2947 8.36892 10.5 7.69223 10.5 7C10.5 6.07174 10.1313 5.1815 9.47487 4.52513C8.8185 3.86875 7.92826 3.5 7 3.5ZM7 9.1C6.58466 9.1 6.17865 8.97684 5.8333 8.74609C5.48796 8.51534 5.2188 8.18736 5.05985 7.80364C4.90091 7.41991 4.85932 6.99767 4.94035 6.59031C5.02138 6.18295 5.22139 5.80877 5.51508 5.51508C5.80877 5.22139 6.18295 5.02138 6.59031 4.94035C6.99767 4.85932 7.41991 4.90091 7.80364 5.05985C8.18736 5.2188 8.51534 5.48796 8.74609 5.8333C8.97684 6.17865 9.1 6.58466 9.1 7C9.1 7.55695 8.87875 8.0911 8.48492 8.48492C8.0911 8.87875 7.55695 9.1 7 9.1ZM10.5 2.8C10.3616 2.8 10.2262 2.84105 10.1111 2.91797C9.99599 2.99489 9.90627 3.10421 9.85328 3.23212C9.8003 3.36003 9.78644 3.50078 9.81345 3.63656C9.84046 3.77235 9.90713 3.89708 10.005 3.99497C10.1029 4.09287 10.2276 4.15954 10.3634 4.18655C10.4992 4.21356 10.64 4.1997 10.7679 4.14672C10.8958 4.09373 11.0051 4.00401 11.082 3.8889C11.1589 3.77378 11.2 3.63845 11.2 3.5C11.2 3.31435 11.1263 3.1363 10.995 3.00503C10.8637 2.87375 10.6857 2.8 10.5 2.8ZM13.958 4.368C13.9464 3.7698 13.8328 3.17796 13.622 2.618C13.4265 2.10845 13.1261 1.64569 12.7402 1.25979C12.3543 0.873883 11.8916 0.573451 11.382 0.378C10.822 0.167229 10.2302 0.0535973 9.632 0.042C8.953 -3.91155e-08 8.729 0 7 0C5.271 0 5.047 -3.91155e-08 4.368 0.042C3.7698 0.0535973 3.17796 0.167229 2.618 0.378C2.10845 0.573451 1.64569 0.873883 1.25979 1.25979C0.873883 1.64569 0.573451 2.10845 0.378 2.618C0.167229 3.17796 0.0535973 3.7698 0.042 4.368C-3.91155e-08 5.054 0 5.278 0 7C0 8.722 -3.91155e-08 8.946 0.042 9.632C0.0535973 10.2302 0.167229 10.822 0.378 11.382C0.573451 11.8916 0.873883 12.3543 1.25979 12.7402C1.64569 13.1261 2.10845 13.4265 2.618 13.622C3.17796 13.8328 3.7698 13.9464 4.368 13.958C5.068 13.958 5.271 14 7 14C8.729 14 8.953 14 9.632 13.958C10.2302 13.9464 10.822 13.8328 11.382 13.622C11.8916 13.4265 12.3543 13.1261 12.7402 12.7402C13.1261 12.3543 13.4265 11.8916 13.622 11.382C13.8328 10.822 13.9464 10.2302 13.958 9.632C13.958 8.932 14 8.722 14 7C14 5.278 14 5.054 13.958 4.368ZM12.558 9.569C12.5457 10.0132 12.463 10.4527 12.313 10.871C12.189 11.2016 11.9929 11.5005 11.739 11.746C11.495 12 11.1955 12.1941 10.864 12.313C10.4447 12.4692 10.0023 12.5543 9.555 12.565C8.897 12.565 8.694 12.6 6.993 12.6C5.292 12.6 5.096 12.6 4.438 12.6C3.99141 12.5885 3.54953 12.5058 3.129 12.355C2.79836 12.231 2.49947 12.0349 2.254 11.781C2.00001 11.537 1.80594 11.2375 1.687 10.906C1.53146 10.489 1.4463 10.049 1.435 9.604C1.435 8.904 1.435 8.729 1.435 7.035C1.435 5.341 1.435 5.138 1.435 4.466C1.44707 4.01885 1.53219 3.57667 1.687 3.157C1.80779 2.82844 2.00167 2.53163 2.254 2.289C2.498 2.03501 2.79749 1.84094 3.129 1.722C3.54829 1.56583 3.99069 1.48066 4.438 1.47C5.096 1.4 5.299 1.4 7 1.4C8.701 1.4 8.904 1.4 9.562 1.4C10.0115 1.41143 10.4561 1.49656 10.878 1.652C11.2066 1.77279 11.5034 1.96667 11.746 2.219C12 2.463 12.1941 2.76249 12.313 3.094C12.4844 3.51999 12.5814 3.97221 12.6 4.431C12.6 5.131 12.635 5.306 12.635 7C12.635 8.694 12.6 8.897 12.6 9.569H12.558Z" fill="#362F2F"/>
</svg>
