<svg width="18" height="18" viewBox="0 0 18 18" fill="none" xmlns="http://www.w3.org/2000/svg">
<path d="M12.75 12.75H14.25C14.6478 12.75 15.0294 12.592 15.3107 12.3107C15.592 12.0294 15.75 11.6478 15.75 11.25V8.25C15.75 7.85218 15.592 7.47064 15.3107 7.18934C15.0294 6.90804 14.6478 6.75 14.25 6.75H3.75C3.35218 6.75 2.97064 6.90804 2.68934 7.18934C2.40804 7.47064 2.25 7.85218 2.25 8.25V11.25C2.25 11.6478 2.40804 12.0294 2.68934 12.3107C2.97064 12.592 3.35218 12.75 3.75 12.75H5.25" stroke="#F7F5F4" stroke-width="1.5" stroke-linecap="round" stroke-linejoin="round"/>
<path d="M12.75 6.75V3.75C12.75 3.35218 12.592 2.97064 12.3107 2.68934C12.0294 2.40804 11.6478 2.25 11.25 2.25H6.75C6.35218 2.25 5.97064 2.40804 5.68934 2.68934C5.40804 2.97064 5.25 3.35218 5.25 3.75V6.75" stroke="#F7F5F4" stroke-width="1.5" stroke-linecap="round" stroke-linejoin="round"/>
<path d="M11.25 9.75H6.75C5.92157 9.75 5.25 10.4216 5.25 11.25V14.25C5.25 15.0784 5.92157 15.75 6.75 15.75H11.25C12.0784 15.75 12.75 15.0784 12.75 14.25V11.25C12.75 10.4216 12.0784 9.75 11.25 9.75Z" stroke="#F7F5F4" stroke-width="1.5" stroke-linecap="round" stroke-linejoin="round"/>
</svg>
