<svg width="201" height="38" viewBox="0 0 201 38" fill="none" xmlns="http://www.w3.org/2000/svg">
<path d="M30.304 18.192V22.544C29.568 22.832 28.64 22.992 27.424 22.992C24.16 22.992 22.256 20.96 22.256 18.4C22.256 15.92 23.888 13.824 27.056 13.824C28.784 13.824 30.208 14.352 31.424 15.392L31.168 13.696C30.256 12.992 28.816 12.576 26.992 12.576C23.008 12.576 20.864 15.248 20.864 18.4C20.864 21.568 23.232 24.224 27.28 24.224C29.008 24.224 30.64 23.936 31.68 23.44V18.192H30.304ZM39.4815 24.192C42.1855 24.192 43.9455 22.352 43.9455 19.888C43.9455 17.424 42.1855 15.6 39.4815 15.6C36.7775 15.6 35.0015 17.424 35.0015 19.888C35.0015 22.352 36.7775 24.192 39.4815 24.192ZM39.4815 23.056C37.5455 23.056 36.3455 21.632 36.3455 19.888C36.3455 18.16 37.5455 16.736 39.4815 16.736C41.4175 16.736 42.6175 18.16 42.6175 19.888C42.6175 21.632 41.4175 23.056 39.4815 23.056ZM51.2927 24.192C53.9967 24.192 55.7568 22.352 55.7568 19.888C55.7568 17.424 53.9967 15.6 51.2927 15.6C48.5887 15.6 46.8127 17.424 46.8127 19.888C46.8127 22.352 48.5887 24.192 51.2927 24.192ZM51.2927 23.056C49.3567 23.056 48.1567 21.632 48.1567 19.888C48.1567 18.16 49.3567 16.736 51.2927 16.736C53.2287 16.736 54.4288 18.16 54.4288 19.888C54.4288 21.632 53.2287 23.056 51.2927 23.056ZM58.624 19.568C58.624 21.76 60.112 23.504 62.688 23.504C64.32 23.504 65.616 22.528 66.064 21.376V22.32C66.064 24.448 65.168 25.744 62.992 25.744C61.344 25.744 59.856 25.008 58.704 23.84L59.056 25.584C59.952 26.256 61.344 26.88 63.024 26.88C65.968 26.88 67.408 25.216 67.408 22.48V15.792H66.064V17.744C65.52 16.528 64.432 15.6 62.688 15.6C60.128 15.6 58.624 17.36 58.624 19.568ZM59.968 19.568C59.968 18.064 60.96 16.704 62.992 16.704C64.288 16.704 65.312 17.36 66.064 18.496V20.656C65.312 21.776 64.288 22.432 62.992 22.432C60.96 22.432 59.968 21.056 59.968 19.568ZM72.6194 24V12.064L71.2754 12.32V24H72.6194ZM84.6529 19.792C84.6529 17.504 83.1329 15.6 80.4769 15.6C77.7089 15.6 75.9809 17.456 75.9809 19.888C75.9809 22.256 77.6929 24.192 80.8129 24.192C82.3169 24.192 83.5809 23.712 84.2689 23.136L84.5889 21.456C83.7249 22.432 82.4449 23.088 80.8929 23.088C78.6849 23.088 77.4209 21.872 77.3249 20.096H84.6529V19.792ZM80.4609 16.608C82.1569 16.608 83.1009 17.744 83.3409 19.088H77.3889C77.6449 17.696 78.7009 16.608 80.4609 16.608ZM99.2524 21.68L94.6124 12.8H92.8204V24H94.1484V14.528L99.0924 24H99.3484L104.276 14.528V24H105.604V12.8H103.86L99.2524 21.68ZM109.216 21.76C109.216 23.248 110.128 24.192 111.84 24.192C113.6 24.192 114.944 23.072 115.472 22.176V24H116.816V18.368C116.816 16.512 115.712 15.6 113.648 15.6C112.224 15.6 111.024 16.016 110.192 16.752L109.984 18.24C110.896 17.28 112.224 16.72 113.488 16.72C114.976 16.72 115.472 17.376 115.472 18.416V18.512L112.16 19.248C110.304 19.664 109.216 20.384 109.216 21.76ZM110.56 21.712C110.56 20.912 111.248 20.432 112.448 20.112L115.472 19.296V21.472C114.784 22.4 113.568 23.152 112.256 23.152C111.104 23.152 110.56 22.608 110.56 21.712ZM122.035 26.608V22.048C122.531 23.248 123.731 24.192 125.395 24.192C127.955 24.192 129.507 22.304 129.507 19.904C129.507 17.472 127.955 15.6 125.395 15.6C123.715 15.6 122.547 16.56 122.035 17.76V15.792H120.691V26.88L122.035 26.608ZM122.035 18.512C122.787 17.376 123.827 16.736 125.107 16.736C127.139 16.736 128.163 18.224 128.163 19.904C128.163 21.568 127.139 23.056 125.091 23.056C123.827 23.056 122.787 22.416 122.035 21.28V18.512Z" fill="#5F2B0B"/>
<line x1="141" y1="21.5468" x2="181" y2="21.5468" stroke="#5F2B0B"/>
<path d="M170 15.0001L172 17.0001L175 19.0001L177 20.0001L180.5 21.5001" stroke="#5F2B0B"/>
<rect x="0.5" y="0.5" width="200" height="37" stroke="#5F2B0B"/>
</svg>
