<svg width="156" height="15" viewBox="0 0 156 15" fill="none" xmlns="http://www.w3.org/2000/svg">
<path d="M5.048 12C8.904 12 11.224 9.872 11.224 6.4C11.224 2.928 8.904 0.799999 5.048 0.799999H0.072V12H5.048ZM2.504 2.992H4.84C7.304 2.992 8.792 4.256 8.792 6.4C8.792 8.544 7.32 9.808 4.84 9.808H2.504V2.992ZM17.2663 12.192C20.1943 12.192 22.0503 10.336 22.0503 7.824C22.0503 5.312 20.1943 3.472 17.2663 3.472C14.3383 3.472 12.4983 5.312 12.4983 7.824C12.4983 10.336 14.3383 12.192 17.2663 12.192ZM17.2663 10.176C15.7943 10.176 14.8823 9.136 14.8823 7.824C14.8823 6.528 15.7943 5.488 17.2663 5.488C18.7543 5.488 19.6663 6.528 19.6663 7.824C19.6663 9.136 18.7543 10.176 17.2663 10.176ZM27.8463 12.192C28.6783 12.192 29.3503 12.048 29.7663 11.776L30.0703 9.648C29.6223 9.92 29.1103 10.128 28.4703 10.128C27.4143 10.128 26.9983 9.632 26.9983 8.576V5.664H30.1983V3.664H26.9983V0.832L24.5983 1.152V3.664H22.6623V5.664H24.5983V8.8C24.5983 11.04 25.7983 12.192 27.8463 12.192ZM43.5966 5.968V9.744C43.1326 9.92 42.4446 10.016 41.5166 10.016C38.8126 10.016 37.3086 8.544 37.3086 6.4C37.3086 4.4 38.6686 2.816 41.3726 2.816C43.0846 2.816 44.6846 3.44 45.8046 4.464L45.4366 1.648C44.4926 0.976 43.1006 0.575999 41.2446 0.575999C37.1646 0.575999 34.8126 3.024 34.8126 6.4C34.8126 9.84 37.2606 12.224 41.3566 12.224C43.2446 12.224 45.0526 11.888 46.0126 11.408V5.968H43.5966ZM50.4701 12V0.0159998L48.0701 0.32V12H50.4701ZM52.2528 9.664C52.2528 11.184 53.1648 12.192 54.8448 12.192C56.6368 12.192 57.7408 11.072 58.1408 10.192V12H60.5568V6.528C60.5568 4.432 59.3888 3.472 57.0688 3.472C55.6128 3.472 54.3328 3.84 53.4208 4.56L53.1008 6.896C53.9968 6.08 55.4848 5.44 56.6848 5.44C57.8208 5.44 58.1408 5.824 58.1408 6.48V6.608L55.6128 7.12C53.6928 7.504 52.2528 8.032 52.2528 9.664ZM54.6528 9.584C54.6528 9.04 55.1008 8.736 55.9808 8.48L58.1408 7.856V9.408C57.6768 10 56.8128 10.464 55.8848 10.464C55.0688 10.464 54.6528 10.16 54.6528 9.584ZM64.9233 12V6.432C65.2913 5.856 65.8993 5.552 66.6193 5.552C67.6753 5.552 68.2353 6.192 68.2353 7.232V12H70.6353V6.752C70.6353 6.64 70.6353 6.528 70.6193 6.416C70.9873 5.84 71.5953 5.552 72.2993 5.552C73.3713 5.552 73.9313 6.192 73.9313 7.232V12H76.3313V6.752C76.3313 4.816 75.3393 3.472 73.3393 3.472C71.7393 3.472 70.9392 4.32 70.5712 5.984C70.3472 4.464 69.3713 3.472 67.6593 3.472C66.0593 3.472 65.2913 4.32 64.9233 6.016V3.664H62.5233V12H64.9233ZM80.642 14.544V9.792C81.042 11.184 82.066 12.192 83.714 12.192C86.21 12.192 87.778 10.384 87.778 7.84C87.778 5.28 86.21 3.472 83.714 3.472C82.066 3.472 81.058 4.464 80.642 5.872V3.664H78.242V14.848L80.642 14.544ZM80.642 6.816C81.09 6.032 81.906 5.488 82.962 5.488C84.578 5.488 85.394 6.56 85.394 7.84C85.394 9.104 84.578 10.176 82.962 10.176C81.906 10.176 81.09 9.632 80.642 8.848V6.816ZM90.567 2.832C91.495 2.832 91.991 2.288 91.991 1.504C91.991 0.735999 91.495 0.16 90.567 0.16C89.655 0.16 89.143 0.735999 89.143 1.504C89.143 2.288 89.655 2.832 90.567 2.832ZM91.767 12V3.664H89.367V12H91.767ZM96.1576 12V6.432C96.5416 5.872 97.1976 5.552 97.9656 5.552C99.0536 5.552 99.6616 6.176 99.6616 7.232V12H102.062V6.752C102.062 4.8 101.054 3.472 99.0536 3.472C97.3736 3.472 96.5096 4.32 96.1576 5.824V3.664H93.7576V12H96.1576ZM103.561 7.504C103.561 9.664 104.969 11.408 107.593 11.408C109.113 11.408 110.345 10.384 110.617 9.088V10.064C110.617 11.776 110.009 12.864 108.025 12.864C106.313 12.864 104.729 12.096 103.609 11.008L104.121 13.776C105.145 14.432 106.649 14.88 108.201 14.88C111.369 14.88 113.033 13.168 113.033 10.256V3.664H110.617V5.904C110.297 4.496 109.209 3.472 107.593 3.472C104.985 3.472 103.561 5.296 103.561 7.504ZM105.961 7.504C105.961 6.4 106.697 5.44 108.249 5.44C109.417 5.44 110.201 5.984 110.617 6.72V8.288C110.185 9.056 109.433 9.552 108.249 9.552C106.697 9.552 105.961 8.592 105.961 7.504ZM120.507 12L121.403 9.856H127.179L128.075 12H130.779L125.739 0.799999H122.907L117.867 12H120.507ZM124.283 2.864L126.251 7.6H122.331L124.283 2.864ZM134.598 12V6.224L139.894 12H143.158L137.51 6L142.982 0.799999H139.718L134.598 5.792V0.799999H132.166V12H134.598ZM149.236 12.224C153.028 12.224 155.316 9.696 155.316 6.4C155.316 3.104 153.028 0.575999 149.236 0.575999C145.444 0.575999 143.156 3.104 143.156 6.4C143.156 9.696 145.444 12.224 149.236 12.224ZM149.252 10.016C146.804 10.016 145.62 8.272 145.62 6.4C145.62 4.528 146.804 2.784 149.252 2.784C151.684 2.784 152.868 4.528 152.868 6.4C152.868 8.272 151.684 10.016 149.252 10.016Z" fill="#362F2F"/>
</svg>
