<svg width="24" height="24" viewBox="0 0 24 24" fill="none" xmlns="http://www.w3.org/2000/svg">
<path d="M12 20C13.1046 20 14 19.1046 14 18C14 16.8954 13.1046 16 12 16C10.8954 16 10 16.8954 10 18C10 19.1046 10.8954 20 12 20Z" stroke="#362F2F" stroke-width="2" stroke-linecap="round" stroke-linejoin="round"/>
<path d="M7.755 13.755C8.31243 13.1956 8.97478 12.7518 9.70409 12.449C10.4334 12.1461 11.2153 11.9902 12.005 11.9902C12.7947 11.9902 13.5766 12.1461 14.3059 12.449C15.0352 12.7518 15.6976 13.1956 16.255 13.755" stroke="#362F2F" stroke-width="2" stroke-linecap="round" stroke-linejoin="round"/>
<path d="M4.93005 10.9299C6.80533 9.05523 9.34841 8.00208 12.0001 8.00208C14.6517 8.00208 17.1948 9.05523 19.0701 10.9299" stroke="#362F2F" stroke-width="2" stroke-linecap="round" stroke-linejoin="round"/>
<path d="M2.09998 8.10003C3.40001 6.79986 4.94343 5.7685 6.64208 5.06485C8.34073 4.36119 10.1613 3.99902 12 3.99902C13.8386 3.99902 15.6592 4.36119 17.3579 5.06485C19.0565 5.7685 20.5999 6.79986 21.9 8.10003" stroke="#362F2F" stroke-width="2" stroke-linecap="round" stroke-linejoin="round"/>
</svg>
